<mxfile host="app.diagrams.net" modified="2021-11-08T12:17:17.719Z" agent="5.0 (Windows NT 10.0; Win64; x64) AppleWebKit/537.36 (KHTML, like Gecko) Chrome/95.0.4638.69 Safari/537.36" etag="tdT0cMb9YOegjeupSBUC" version="15.7.0" type="github">
  <diagram id="g0ZF7XSLTscZsnzBH4Ta" name="Page-1">
    <mxGraphModel dx="981" dy="548" grid="1" gridSize="10" guides="1" tooltips="1" connect="1" arrows="1" fold="1" page="1" pageScale="1" pageWidth="827" pageHeight="1169" math="0" shadow="0">
      <root>
        <mxCell id="0" />
        <mxCell id="1" parent="0" />
        <mxCell id="LKJJu9fYpHt10xwnbVlI-1" value="&lt;br&gt;Raspberry Pi 3B +&lt;br&gt;(Smart Camera)" style="rounded=1;whiteSpace=wrap;html=1;fontStyle=1" parent="1" vertex="1">
          <mxGeometry x="330" y="540" width="140" height="125" as="geometry" />
        </mxCell>
        <mxCell id="LKJJu9fYpHt10xwnbVlI-2" value="" style="fontColor=#0066CC;verticalAlign=top;verticalLabelPosition=bottom;labelPosition=center;align=center;html=1;outlineConnect=0;fillColor=#CCCCCC;strokeColor=#6881B3;gradientColor=none;gradientDirection=north;strokeWidth=2;shape=mxgraph.networks.security_camera;fontStyle=1" parent="1" vertex="1">
          <mxGeometry x="350" y="572" width="40" height="25" as="geometry" />
        </mxCell>
        <mxCell id="LKJJu9fYpHt10xwnbVlI-3" value="" style="image;html=1;image=img/lib/clip_art/networking/Ip_Camera_128x128.png;fontStyle=1" parent="1" vertex="1">
          <mxGeometry x="266.25" y="710" width="50" height="50" as="geometry" />
        </mxCell>
        <mxCell id="LKJJu9fYpHt10xwnbVlI-4" value="" style="endArrow=none;dashed=1;html=1;rounded=0;fontStyle=1" parent="1" edge="1">
          <mxGeometry width="50" height="50" relative="1" as="geometry">
            <mxPoint x="280" y="602.16" as="sourcePoint" />
            <mxPoint x="330" y="602.16" as="targetPoint" />
          </mxGeometry>
        </mxCell>
        <mxCell id="LKJJu9fYpHt10xwnbVlI-5" value="&lt;p style=&quot;line-height: 1.2&quot;&gt;&lt;span&gt;HW&lt;/span&gt;&lt;/p&gt;" style="rounded=1;whiteSpace=wrap;html=1;fontStyle=1" parent="1" vertex="1">
          <mxGeometry x="190" y="585" width="90" height="40" as="geometry" />
        </mxCell>
        <mxCell id="LKJJu9fYpHt10xwnbVlI-6" value="" style="endArrow=none;dashed=1;html=1;rounded=0;entryX=0.5;entryY=1;entryDx=0;entryDy=0;exitX=0.5;exitY=0;exitDx=0;exitDy=0;fontStyle=1" parent="1" source="LKJJu9fYpHt10xwnbVlI-8" target="LKJJu9fYpHt10xwnbVlI-5" edge="1">
          <mxGeometry width="50" height="50" relative="1" as="geometry">
            <mxPoint x="280" y="690" as="sourcePoint" />
            <mxPoint x="240" y="640" as="targetPoint" />
            <Array as="points">
              <mxPoint x="290" y="670" />
            </Array>
          </mxGeometry>
        </mxCell>
        <mxCell id="LKJJu9fYpHt10xwnbVlI-7" value="" style="endArrow=none;dashed=1;html=1;rounded=0;entryX=0.5;entryY=1;entryDx=0;entryDy=0;startArrow=none;fontStyle=1" parent="1" source="LKJJu9fYpHt10xwnbVlI-10" target="LKJJu9fYpHt10xwnbVlI-5" edge="1">
          <mxGeometry width="50" height="50" relative="1" as="geometry">
            <mxPoint x="190" y="690" as="sourcePoint" />
            <mxPoint x="230" y="640" as="targetPoint" />
          </mxGeometry>
        </mxCell>
        <mxCell id="LKJJu9fYpHt10xwnbVlI-8" value="Camera" style="rounded=1;whiteSpace=wrap;html=1;fontStyle=1" parent="1" vertex="1">
          <mxGeometry x="255" y="670" width="72.5" height="20" as="geometry" />
        </mxCell>
        <mxCell id="LKJJu9fYpHt10xwnbVlI-11" value="" style="shape=image;html=1;verticalAlign=top;verticalLabelPosition=bottom;labelBackgroundColor=#ffffff;imageAspect=0;aspect=fixed;image=https://cdn2.iconfinder.com/data/icons/kitchen-appliances-computers-and-electronics/32/Appliances-37-128.png;fontStyle=1" parent="1" vertex="1">
          <mxGeometry x="156.25" y="710" width="40" height="40" as="geometry" />
        </mxCell>
        <mxCell id="LKJJu9fYpHt10xwnbVlI-12" value="" style="endArrow=none;dashed=1;html=1;rounded=0;exitX=1;exitY=0.5;exitDx=0;exitDy=0;fontStyle=1" parent="1" source="LKJJu9fYpHt10xwnbVlI-1" edge="1">
          <mxGeometry width="50" height="50" relative="1" as="geometry">
            <mxPoint x="410" y="660" as="sourcePoint" />
            <mxPoint x="530" y="603" as="targetPoint" />
          </mxGeometry>
        </mxCell>
        <mxCell id="LKJJu9fYpHt10xwnbVlI-10" value="Pan Module" style="rounded=1;whiteSpace=wrap;html=1;fontStyle=1" parent="1" vertex="1">
          <mxGeometry x="140" y="670" width="72.5" height="20" as="geometry" />
        </mxCell>
        <mxCell id="LKJJu9fYpHt10xwnbVlI-13" value="" style="endArrow=none;dashed=1;html=1;rounded=0;entryX=0.5;entryY=1;entryDx=0;entryDy=0;fontStyle=1" parent="1" target="LKJJu9fYpHt10xwnbVlI-10" edge="1">
          <mxGeometry width="50" height="50" relative="1" as="geometry">
            <mxPoint x="190" y="690" as="sourcePoint" />
            <mxPoint x="235" y="625" as="targetPoint" />
          </mxGeometry>
        </mxCell>
        <mxCell id="LKJJu9fYpHt10xwnbVlI-15" value="SW(Main.py)" style="rounded=1;whiteSpace=wrap;html=1;fontStyle=1" parent="1" vertex="1">
          <mxGeometry x="520" y="582.5" width="90" height="40" as="geometry" />
        </mxCell>
        <mxCell id="LKJJu9fYpHt10xwnbVlI-16" value="" style="endArrow=none;dashed=1;html=1;rounded=0;entryX=0.5;entryY=1;entryDx=0;entryDy=0;fontStyle=1" parent="1" target="LKJJu9fYpHt10xwnbVlI-15" edge="1">
          <mxGeometry width="50" height="50" relative="1" as="geometry">
            <mxPoint x="565" y="700" as="sourcePoint" />
            <mxPoint x="570" y="622.5" as="targetPoint" />
          </mxGeometry>
        </mxCell>
        <mxCell id="LKJJu9fYpHt10xwnbVlI-18" value="Email.JS" style="rounded=1;whiteSpace=wrap;html=1;fontStyle=1" parent="1" vertex="1">
          <mxGeometry x="520" y="700" width="90" height="40" as="geometry" />
        </mxCell>
        <mxCell id="LKJJu9fYpHt10xwnbVlI-19" value="" style="html=1;verticalLabelPosition=bottom;labelBackgroundColor=#ffffff;verticalAlign=top;shadow=0;dashed=0;strokeWidth=2;shape=mxgraph.ios7.misc.number_pad;strokeWidth=1;fontStyle=1" parent="1" vertex="1">
          <mxGeometry x="680" y="685" width="70" height="70" as="geometry" />
        </mxCell>
        <mxCell id="LKJJu9fYpHt10xwnbVlI-21" value="" style="endArrow=none;dashed=1;html=1;rounded=0;entryX=0;entryY=0.5;entryDx=0;entryDy=0;entryPerimeter=0;fontStyle=1" parent="1" target="LKJJu9fYpHt10xwnbVlI-19" edge="1">
          <mxGeometry width="50" height="50" relative="1" as="geometry">
            <mxPoint x="610" y="720" as="sourcePoint" />
            <mxPoint x="660" y="670" as="targetPoint" />
          </mxGeometry>
        </mxCell>
        <mxCell id="LKJJu9fYpHt10xwnbVlI-22" value="파이카메라" style="text;html=1;strokeColor=none;fillColor=none;align=center;verticalAlign=middle;whiteSpace=wrap;rounded=0;fontStyle=1" parent="1" vertex="1">
          <mxGeometry x="251.88" y="770" width="78.75" height="30" as="geometry" />
        </mxCell>
        <mxCell id="LKJJu9fYpHt10xwnbVlI-23" value="인증코드 발송" style="text;html=1;strokeColor=none;fillColor=none;align=center;verticalAlign=middle;whiteSpace=wrap;rounded=0;fontStyle=1" parent="1" vertex="1">
          <mxGeometry x="685" y="770" width="60" height="30" as="geometry" />
        </mxCell>
        <mxCell id="LKJJu9fYpHt10xwnbVlI-24" value="파이 쿨러" style="text;html=1;strokeColor=none;fillColor=none;align=center;verticalAlign=middle;whiteSpace=wrap;rounded=0;fontStyle=1" parent="1" vertex="1">
          <mxGeometry x="146.25" y="770" width="60" height="30" as="geometry" />
        </mxCell>
        <mxCell id="LKJJu9fYpHt10xwnbVlI-26" value="Login" style="html=1;strokeColor=none;fillColor=#0079D6;labelPosition=center;verticalLabelPosition=middle;verticalAlign=top;align=center;fontSize=12;outlineConnect=0;spacingTop=-6;fontColor=#FFFFFF;sketch=0;shape=mxgraph.sitemap.login;" parent="1" vertex="1">
          <mxGeometry x="820" y="695" width="110" height="50" as="geometry" />
        </mxCell>
        <mxCell id="LKJJu9fYpHt10xwnbVlI-27" value="" style="endArrow=none;dashed=1;html=1;rounded=0;entryX=0;entryY=0.5;entryDx=0;entryDy=0;entryPerimeter=0;" parent="1" target="LKJJu9fYpHt10xwnbVlI-26" edge="1">
          <mxGeometry width="50" height="50" relative="1" as="geometry">
            <mxPoint x="750" y="720" as="sourcePoint" />
            <mxPoint x="800" y="670" as="targetPoint" />
          </mxGeometry>
        </mxCell>
        <mxCell id="JqtqXWp_v0IO-MCkJkVf-1" value="Container" style="swimlane;" vertex="1" parent="1">
          <mxGeometry x="772.5" y="440" width="205" height="180" as="geometry" />
        </mxCell>
        <mxCell id="JqtqXWp_v0IO-MCkJkVf-2" value="" style="rounded=1;whiteSpace=wrap;html=1;strokeWidth=2;fillWeight=4;hachureGap=8;hachureAngle=45;fillColor=#1ba1e2;sketch=1;" vertex="1" parent="JqtqXWp_v0IO-MCkJkVf-1">
          <mxGeometry x="63.75" y="70" width="77.5" height="70" as="geometry" />
        </mxCell>
        <mxCell id="JqtqXWp_v0IO-MCkJkVf-4" value="Actor" style="shape=umlActor;verticalLabelPosition=bottom;verticalAlign=top;html=1;" vertex="1" parent="JqtqXWp_v0IO-MCkJkVf-1">
          <mxGeometry x="87.5" y="75" width="30" height="60" as="geometry" />
        </mxCell>
        <mxCell id="JqtqXWp_v0IO-MCkJkVf-5" value="실시간 감시중" style="text;strokeColor=none;fillColor=none;html=1;fontSize=24;fontStyle=1;verticalAlign=middle;align=center;" vertex="1" parent="JqtqXWp_v0IO-MCkJkVf-1">
          <mxGeometry x="52.5" y="30" width="100" height="40" as="geometry" />
        </mxCell>
        <mxCell id="JqtqXWp_v0IO-MCkJkVf-6" value="" style="endArrow=classic;html=1;rounded=0;exitX=0.5;exitY=0;exitDx=0;exitDy=0;exitPerimeter=0;" edge="1" parent="1" source="LKJJu9fYpHt10xwnbVlI-26">
          <mxGeometry width="50" height="50" relative="1" as="geometry">
            <mxPoint x="874.66" y="690" as="sourcePoint" />
            <mxPoint x="874.66" y="650" as="targetPoint" />
            <Array as="points" />
          </mxGeometry>
        </mxCell>
        <mxCell id="JqtqXWp_v0IO-MCkJkVf-8" value="" style="edgeStyle=elbowEdgeStyle;elbow=horizontal;endArrow=classic;html=1;rounded=0;exitX=0.5;exitY=0;exitDx=0;exitDy=0;" edge="1" parent="1" source="JqtqXWp_v0IO-MCkJkVf-1">
          <mxGeometry width="50" height="50" relative="1" as="geometry">
            <mxPoint x="500" y="560" as="sourcePoint" />
            <mxPoint x="710" y="390" as="targetPoint" />
            <Array as="points">
              <mxPoint x="875" y="410" />
              <mxPoint x="875" y="420" />
            </Array>
          </mxGeometry>
        </mxCell>
        <mxCell id="JqtqXWp_v0IO-MCkJkVf-9" value="" style="image;html=1;image=img/lib/clip_art/networking/Ip_Camera_128x128.png;fontStyle=1" vertex="1" parent="1">
          <mxGeometry x="650" y="360" width="50" height="50" as="geometry" />
        </mxCell>
        <mxCell id="JqtqXWp_v0IO-MCkJkVf-10" value="" style="shape=actor;whiteSpace=wrap;html=1;" vertex="1" parent="1">
          <mxGeometry x="545" y="350" width="40" height="60" as="geometry" />
        </mxCell>
        <mxCell id="JqtqXWp_v0IO-MCkJkVf-11" value="" style="endArrow=none;html=1;rounded=0;" edge="1" parent="1">
          <mxGeometry width="50" height="50" relative="1" as="geometry">
            <mxPoint x="600" y="360" as="sourcePoint" />
            <mxPoint x="649" y="380" as="targetPoint" />
            <Array as="points" />
          </mxGeometry>
        </mxCell>
        <mxCell id="JqtqXWp_v0IO-MCkJkVf-12" value="" style="endArrow=none;html=1;rounded=0;entryX=0;entryY=0.5;entryDx=0;entryDy=0;" edge="1" parent="1" target="JqtqXWp_v0IO-MCkJkVf-9">
          <mxGeometry width="50" height="50" relative="1" as="geometry">
            <mxPoint x="600" y="410" as="sourcePoint" />
            <mxPoint x="560" y="520" as="targetPoint" />
          </mxGeometry>
        </mxCell>
        <mxCell id="JqtqXWp_v0IO-MCkJkVf-13" value="사람 인식" style="text;html=1;strokeColor=none;fillColor=none;align=center;verticalAlign=middle;whiteSpace=wrap;rounded=0;fontStyle=1" vertex="1" parent="1">
          <mxGeometry x="635.62" y="420" width="78.75" height="30" as="geometry" />
        </mxCell>
        <mxCell id="JqtqXWp_v0IO-MCkJkVf-14" value="" style="endArrow=none;dashed=1;html=1;rounded=0;fontStyle=1;entryX=0.5;entryY=1;entryDx=0;entryDy=0;" edge="1" parent="1" target="JqtqXWp_v0IO-MCkJkVf-15">
          <mxGeometry width="50" height="50" relative="1" as="geometry">
            <mxPoint x="564.66" y="582.5" as="sourcePoint" />
            <mxPoint x="565" y="490" as="targetPoint" />
          </mxGeometry>
        </mxCell>
        <mxCell id="JqtqXWp_v0IO-MCkJkVf-15" value="Open CV" style="rounded=1;whiteSpace=wrap;html=1;fontStyle=1" vertex="1" parent="1">
          <mxGeometry x="520" y="430" width="90" height="40" as="geometry" />
        </mxCell>
        <mxCell id="JqtqXWp_v0IO-MCkJkVf-16" value="" style="endArrow=classic;html=1;rounded=0;" edge="1" parent="1">
          <mxGeometry width="50" height="50" relative="1" as="geometry">
            <mxPoint x="530" y="380" as="sourcePoint" />
            <mxPoint x="480" y="380" as="targetPoint" />
          </mxGeometry>
        </mxCell>
        <mxCell id="JqtqXWp_v0IO-MCkJkVf-17" value="Photo" style="html=1;strokeColor=none;fillColor=#0079D6;labelPosition=center;verticalLabelPosition=middle;verticalAlign=top;align=center;fontSize=12;outlineConnect=0;spacingTop=-6;fontColor=#FFFFFF;sketch=0;shape=mxgraph.sitemap.photo;" vertex="1" parent="1">
          <mxGeometry x="390" y="342.5" width="80" height="75" as="geometry" />
        </mxCell>
        <mxCell id="JqtqXWp_v0IO-MCkJkVf-19" value="Camera.py" style="rounded=1;whiteSpace=wrap;html=1;fontStyle=1" vertex="1" parent="1">
          <mxGeometry x="385" y="430" width="90" height="40" as="geometry" />
        </mxCell>
        <mxCell id="JqtqXWp_v0IO-MCkJkVf-20" value="index.html Flask" style="text;html=1;strokeColor=none;fillColor=none;align=center;verticalAlign=middle;whiteSpace=wrap;rounded=0;fontStyle=1" vertex="1" parent="1">
          <mxGeometry x="835.62" y="620" width="78.75" height="30" as="geometry" />
        </mxCell>
        <mxCell id="JqtqXWp_v0IO-MCkJkVf-21" value="" style="endArrow=classic;html=1;rounded=0;" edge="1" parent="1">
          <mxGeometry width="50" height="50" relative="1" as="geometry">
            <mxPoint x="370" y="380" as="sourcePoint" />
            <mxPoint x="320" y="380" as="targetPoint" />
            <Array as="points">
              <mxPoint x="370" y="380" />
            </Array>
          </mxGeometry>
        </mxCell>
        <mxCell id="JqtqXWp_v0IO-MCkJkVf-22" value="" style="image;html=1;image=img/lib/clip_art/networking/Email_128x128.png" vertex="1" parent="1">
          <mxGeometry x="230" y="345" width="76.25" height="70" as="geometry" />
        </mxCell>
        <mxCell id="JqtqXWp_v0IO-MCkJkVf-23" value="Mali.py" style="rounded=1;whiteSpace=wrap;html=1;fontStyle=1" vertex="1" parent="1">
          <mxGeometry x="223.13" y="430" width="90" height="40" as="geometry" />
        </mxCell>
        <mxCell id="JqtqXWp_v0IO-MCkJkVf-26" value="" style="endArrow=none;dashed=1;html=1;rounded=0;fontStyle=1;entryX=0;entryY=0.5;entryDx=0;entryDy=0;exitX=1;exitY=0.5;exitDx=0;exitDy=0;" edge="1" parent="1" source="JqtqXWp_v0IO-MCkJkVf-19" target="JqtqXWp_v0IO-MCkJkVf-15">
          <mxGeometry width="50" height="50" relative="1" as="geometry">
            <mxPoint x="574.6599999999999" y="592.5" as="sourcePoint" />
            <mxPoint x="575" y="480" as="targetPoint" />
          </mxGeometry>
        </mxCell>
        <mxCell id="JqtqXWp_v0IO-MCkJkVf-27" value="" style="endArrow=none;dashed=1;html=1;rounded=0;fontStyle=1;entryX=0;entryY=0.5;entryDx=0;entryDy=0;exitX=1;exitY=0.5;exitDx=0;exitDy=0;" edge="1" parent="1" source="JqtqXWp_v0IO-MCkJkVf-23">
          <mxGeometry width="50" height="50" relative="1" as="geometry">
            <mxPoint x="340" y="449.66" as="sourcePoint" />
            <mxPoint x="385" y="449.66" as="targetPoint" />
          </mxGeometry>
        </mxCell>
        <mxCell id="JqtqXWp_v0IO-MCkJkVf-29" value="웹페이지&lt;br&gt;잠금 해제" style="text;html=1;strokeColor=none;fillColor=none;align=center;verticalAlign=middle;whiteSpace=wrap;rounded=0;fontStyle=1" vertex="1" parent="1">
          <mxGeometry x="845" y="770" width="60" height="30" as="geometry" />
        </mxCell>
        <mxCell id="JqtqXWp_v0IO-MCkJkVf-30" value="Login" style="html=1;strokeColor=none;fillColor=#0079D6;labelPosition=center;verticalLabelPosition=middle;verticalAlign=top;align=center;fontSize=12;outlineConnect=0;spacingTop=-6;fontColor=#FFFFFF;sketch=0;shape=mxgraph.sitemap.login;" vertex="1" parent="1">
          <mxGeometry x="30" y="355" width="110" height="50" as="geometry" />
        </mxCell>
        <mxCell id="JqtqXWp_v0IO-MCkJkVf-31" value="" style="endArrow=classic;html=1;rounded=0;" edge="1" parent="1">
          <mxGeometry width="50" height="50" relative="1" as="geometry">
            <mxPoint x="212.5" y="379.66" as="sourcePoint" />
            <mxPoint x="162.5" y="379.66" as="targetPoint" />
            <Array as="points">
              <mxPoint x="212.5" y="379.66" />
            </Array>
          </mxGeometry>
        </mxCell>
        <mxCell id="JqtqXWp_v0IO-MCkJkVf-32" value="" style="endArrow=classic;html=1;rounded=0;" edge="1" parent="1">
          <mxGeometry width="50" height="50" relative="1" as="geometry">
            <mxPoint x="84.66" y="460" as="sourcePoint" />
            <mxPoint x="84.66" y="510" as="targetPoint" />
            <Array as="points">
              <mxPoint x="84.66" y="460" />
            </Array>
          </mxGeometry>
        </mxCell>
        <mxCell id="JqtqXWp_v0IO-MCkJkVf-33" value="수신 이메일 로그인" style="text;html=1;strokeColor=none;fillColor=none;align=center;verticalAlign=middle;whiteSpace=wrap;rounded=0;fontStyle=1" vertex="1" parent="1">
          <mxGeometry x="45.63" y="420" width="78.75" height="30" as="geometry" />
        </mxCell>
        <mxCell id="JqtqXWp_v0IO-MCkJkVf-34" value="" style="verticalLabelPosition=bottom;html=1;verticalAlign=top;align=center;strokeColor=none;fillColor=#00BEF2;shape=mxgraph.azure.user;" vertex="1" parent="1">
          <mxGeometry x="51.25" y="522" width="47.5" height="50" as="geometry" />
        </mxCell>
        <mxCell id="JqtqXWp_v0IO-MCkJkVf-35" value="" style="verticalLabelPosition=bottom;html=1;verticalAlign=top;align=center;strokeColor=none;fillColor=#00BEF2;shape=mxgraph.azure.mobile;pointerEvents=1;" vertex="1" parent="1">
          <mxGeometry x="98.75" y="532" width="12.5" height="30" as="geometry" />
        </mxCell>
        <mxCell id="JqtqXWp_v0IO-MCkJkVf-36" value="발신 이메일 유저에게 전송" style="text;html=1;strokeColor=none;fillColor=none;align=center;verticalAlign=middle;whiteSpace=wrap;rounded=0;fontStyle=1" vertex="1" parent="1">
          <mxGeometry x="45.63" y="582.5" width="78.75" height="30" as="geometry" />
        </mxCell>
      </root>
    </mxGraphModel>
  </diagram>
</mxfile>
